<?xml version="1.0" encoding="utf-8"?>
<!-- Generator: Adobe Illustrator 27.1.1, SVG Export Plug-In . SVG Version: 6.00 Build 0)  -->
<svg version="1.1" id="Capa_1" xmlns="http://www.w3.org/2000/svg" xmlns:xlink="http://www.w3.org/1999/xlink" x="0px" y="0px"
	 viewBox="0 0 1000 1000" style="enable-background:new 0 0 1000 1000;" xml:space="preserve">
<style type="text/css">
	.st0{fill:#1D0056;}
	.st1{fill:#FFFFFF;}
	.st2{fill:url(#SVGID_1_);}
	.st3{fill:url(#SVGID_00000171684708756656169390000017415758250548609171_);}
	.st4{fill:#FFFFFF;stroke:#000000;stroke-width:7;stroke-miterlimit:10;}
</style>
<g>
	<path class="st0" d="M345.9,965.7c-25.2,0-48.9-9.8-66.8-27.7L62,720.8C44.1,703,34.3,679.3,34.3,654V346.9
		c0-25.2,9.8-48.9,27.7-66.8L279.2,62.9c17.8-17.8,41.5-27.7,66.8-27.7h307.2c25.2,0,48.9,9.8,66.8,27.7L937,280.1
		c17.8,17.8,27.7,41.5,27.7,66.8V654c0,25.2-9.8,48.9-27.7,66.8L719.8,938c-17.8,17.8-41.5,27.7-66.8,27.7L345.9,965.7L345.9,965.7z
		"/>
	<path d="M653.1,35.8c12.4,0,24.5,2.4,35.9,7.1c11.4,4.7,21.7,11.6,30.5,20.3l217.2,217.2c8.8,8.8,15.6,19,20.3,30.5
		c4.7,11.4,7.1,23.5,7.1,35.9V654c0,12.4-2.4,24.5-7.1,35.9c-4.7,11.4-11.6,21.7-20.3,30.5L719.4,937.6c-8.8,8.8-19,15.6-30.5,20.3
		c-11.4,4.7-23.5,7.1-35.9,7.1H345.9c-12.4,0-24.5-2.4-35.9-7.1c-11.4-4.7-21.7-11.6-30.5-20.3L62.4,720.4
		c-8.8-8.8-15.6-19-20.3-30.5c-4.7-11.4-7.1-23.5-7.1-35.9V346.9c0-12.4,2.4-24.5,7.1-35.9c4.7-11.4,11.6-21.7,20.3-30.5L279.6,63.3
		c8.8-8.8,19-15.6,30.5-20.3c11.4-4.7,23.5-7.1,35.9-7.1L653.1,35.8 M653.1,34.7H345.9c-25.2,0-49.4,10-67.2,27.8L61.6,279.7
		c-17.8,17.8-27.8,42-27.8,67.2V654c0,25.2,10,49.3,27.8,67.2l217.2,217.2c17.8,17.8,42,27.8,67.2,27.8h307.2
		c25.2,0,49.3-10,67.2-27.8l217.2-217.2c17.8-17.8,27.8-42,27.8-67.2V346.9c0-25.2-10-49.4-27.8-67.2L720.2,62.5
		C702.4,44.7,678.3,34.7,653.1,34.7L653.1,34.7z"/>
</g>
<g>
	<path class="st1" d="M331,944.4c-9.9,0-19.2-3.8-26.2-10.8L66.4,695.2c-7-7-10.8-16.3-10.8-26.2V331.9c0-9.9,3.8-19.2,10.8-26.2
		L304.8,67.4c7-7,16.3-10.8,26.2-10.8h337.1c9.9,0,19.2,3.8,26.2,10.8l238.4,238.4c7,7,10.8,16.3,10.8,26.2V669
		c0,9.9-3.8,19.2-10.8,26.2L694.2,933.6c-7,7-16.3,10.8-26.2,10.8L331,944.4L331,944.4z"/>
	<path d="M668.1,57.1c9.7,0,18.9,3.8,25.8,10.7l238.4,238.4c6.9,6.9,10.7,16,10.7,25.8V669c0,9.7-3.8,18.9-10.7,25.8L693.8,933.1
		c-6.9,6.9-16,10.7-25.8,10.7H331c-9.7,0-18.9-3.8-25.8-10.7L66.8,694.8c-6.9-6.9-10.7-16-10.7-25.8V331.9c0-9.7,3.8-18.9,10.7-25.8
		L305.2,67.8c6.9-6.9,16-10.7,25.8-10.7H668.1 M668.1,55.9H331c-10,0-19.5,4-26.6,11L66,305.3c-7.1,7.1-11,16.6-11,26.6V669
		c0,10,4,19.5,11,26.6L304.3,934c7.1,7.1,16.6,11,26.6,11h337.1c10,0,19.5-4,26.6-11L933,695.6c7.1-7.1,11-16.6,11-26.6V331.9
		c0-10-4-19.5-11-26.6L694.7,66.9C687.6,59.9,678,55.9,668.1,55.9L668.1,55.9z"/>
</g>
<g>
	
		<radialGradient id="SVGID_1_" cx="499.3071" cy="497.7352" r="415.16" gradientTransform="matrix(1 0 0 -1 0 1002)" gradientUnits="userSpaceOnUse">
		<stop  offset="0" style="stop-color:#FFFFFF"/>
		<stop  offset="6.113505e-02" style="stop-color:#DFDBE7"/>
		<stop  offset="0.1592" style="stop-color:#B2A8C6"/>
		<stop  offset="0.2619" style="stop-color:#8A7BA8"/>
		<stop  offset="0.3674" style="stop-color:#69558F"/>
		<stop  offset="0.4761" style="stop-color:#4D367A"/>
		<stop  offset="0.5894" style="stop-color:#381E6A"/>
		<stop  offset="0.7089" style="stop-color:#290D5F"/>
		<stop  offset="0.8392" style="stop-color:#200358"/>
		<stop  offset="1" style="stop-color:#1D0056"/>
	</radialGradient>
	<path class="st2" d="M346,919.4c-12,0-23.3-4.7-31.8-13.2L97.3,689.4c-8.5-8.5-13.2-19.8-13.2-31.8V350.9c0-12,4.7-23.3,13.2-31.8
		l216.9-216.9c8.5-8.5,19.8-13.2,31.8-13.2h306.7c12,0,23.3,4.7,31.8,13.2l216.9,216.9c8.5,8.5,13.2,19.8,13.2,31.8v306.7
		c0,12-4.7,23.3-13.2,31.8L684.4,906.3c-8.5,8.5-19.8,13.2-31.8,13.2L346,919.4L346,919.4z"/>
	
		<radialGradient id="SVGID_00000153680059438060426050000009625726945090238883_" cx="499.3021" cy="504.2598" r="415.745" gradientUnits="userSpaceOnUse">
		<stop  offset="0" style="stop-color:#FFFFFF"/>
		<stop  offset="1" style="stop-color:#000000"/>
	</radialGradient>
	<path style="fill:url(#SVGID_00000153680059438060426050000009625726945090238883_);" d="M652.6,89.7c11.9,0,23,4.6,31.4,13
		l216.8,216.9c8.4,8.4,13,19.5,13,31.4v306.7c0,11.9-4.6,23-13,31.4L684,905.8c-8.4,8.4-19.5,13-31.4,13H346c-11.9,0-23-4.6-31.4-13
		L97.7,689c-8.4-8.4-13-19.5-13-31.4V350.9c0-11.9,4.6-23,13-31.4l216.9-216.9c8.4-8.4,19.5-13,31.4-13H652.6 M652.6,88.5H346
		c-12.1,0-23.7,4.8-32.2,13.3L96.9,318.7c-8.5,8.5-13.3,20.1-13.3,32.2v306.7c0,12.1,4.8,23.7,13.3,32.2l216.9,216.8
		c8.5,8.5,20.1,13.3,32.2,13.3h306.7c12.1,0,23.7-4.8,32.2-13.3l216.8-216.9c8.5-8.5,13.3-20.1,13.3-32.2V350.9
		c0-12.1-4.8-23.7-13.3-32.2L684.9,101.9C676.3,93.3,664.7,88.5,652.6,88.5L652.6,88.5z"/>
</g>
<g>
	<path class="st4" d="M359,633l46-19c21-10,70.5-30.7,77-34c10-5,38-18,43-4c2.5,6.9,1,3,4,12c2.4,7.3,7,17.4,10.4,24.8
		c2.2,4.9,4.2,9.5,5.8,13.9c1.2,3.3-1.2,6.8-4.7,6.8H420.9c-2.2,0-4.1,1.4-4.8,3.4l-29.5,88.5c-0.7,2-2.6,3.4-4.8,3.4H308
		c-3.5,0-5.9-3.4-4.7-6.7l153-426.2c0.7-2,2.6-3.3,4.7-3.3H538c2.1,0,4,1.3,4.7,3.3l153,426.2c1.2,3.3-1.2,6.7-4.7,6.7h-78
		c-2.2,0-4.1-1.4-4.8-3.4L499.1,389.3c-0.1-0.2-0.2-0.4-0.3-0.5L498,388 M498,388c-3-3-144,247.4-139,245"/>
</g>
</svg>
